REM MD5 2f5b4e86b7c47e70ba06d5977d981f74
FILE "Sentimental Graffiti - Yakusoku (Japan).bin" BINARY
  TRACK 01 MODE2/2352
    INDEX 01 00:00:00
  TRACK 02 AUDIO
    INDEX 00 35:30:51
    INDEX 01 35:32:51
  TRACK 03 AUDIO
    INDEX 00 36:39:45
    INDEX 01 36:41:45
  TRACK 04 AUDIO
    INDEX 00 37:50:07
    INDEX 01 37:52:07
  TRACK 05 AUDIO
    INDEX 00 38:57:10
    INDEX 01 38:59:10
REM LEADOUT 42:07:10
